# File created by Blade
# Date/Time:  Wed Jan 21 15:55:51 2015
# Frame Rate: 120.000 fps
#------------------------------------------------------
:FULLY-SPECIFIED
:DEGREES
869
root 23.450709 16.070490 -12.768937 -169.991406 20.743120 -203.353333
Spine 33.952575 -16.094443 33.915875
Head 16.664079 9.644086 6.606815
LeftShoulder 0.200775 -32.342055 12.918755
LeftArm -14.115718 -14.876458 -25.371348
LeftForeArm -21.085279 -0.000000 -7.779693
LeftHand -10.993431 0.000000 4.669984
LeftHandThumb1 -26.253704 0.000000 33.147579
RightShoulder -0.748788 3.263447 5.008266
RightArm 33.425171 37.702910 62.989008
RightForeArm -6.811914 -0.000000 37.463044
RightHand -14.379062 -0.000000 -74.402012
RightHandThumb1 -24.326973 -0.000000 -32.862282
LeftUpLeg 3.569011 38.374748 35.326163
LeftLeg -2.672533 -0.000000 0.000000
LeftFoot -3.713894 19.256736 -27.942704
LeftToeBase 40.412528 -0.000000 -0.000000
RightUpLeg -114.122599 -14.876666 -4.503972
RightLeg 129.054709 -0.000000 -0.000000
RightFoot -62.808215 -34.594392 31.137656
RightToeBase 21.025263 -0.000000 -0.000000
870
root 23.450273 16.057757 -12.751118 -170.038238 20.751554 -203.312219
Spine 34.182681 -16.372793 33.495141
Head 16.594692 9.641406 6.324232
LeftShoulder 0.853419 -32.434099 11.929478
LeftArm -14.085331 -15.045657 -26.606014
LeftForeArm -21.907669 -0.000000 -7.867382
LeftHand -11.078432 0.000000 4.362278
LeftHandThumb1 -26.253704 0.000000 33.147579
RightShoulder -0.462532 3.339158 5.099568
RightArm 33.415151 37.259861 62.723766
RightForeArm -6.453656 -0.000000 37.006864
RightHand -14.382537 0.000000 -74.466357
RightHandThumb1 -24.326973 -0.000000 -32.862282
LeftUpLeg 3.633703 38.393931 35.428470
LeftLeg -2.696778 -0.000000 0.000000
LeftFoot -3.705688 19.235034 -27.957239
LeftToeBase 40.450231 -0.000000 -0.000000
RightUpLeg -114.139691 -14.833000 -4.442178
RightLeg 129.065454 -0.000000 -0.000000
RightFoot -62.772226 -34.612252 31.118785
RightToeBase 20.719015 -0.000000 -0.000000
871
root 23.449861 16.043792 -12.731602 -170.090840 20.750221 -203.282607
Spine 34.425903 -16.687774 33.004188
Head 16.549825 9.780057 6.202141
LeftShoulder 1.483903 -32.407827 11.022308
LeftArm -14.033074 -15.565142 -27.795981
LeftForeArm -22.533337 -0.000000 -7.917626
LeftHand -11.234707 0.000000 3.930239
LeftHandThumb1 -26.253704 0.000000 33.147579
RightShoulder -0.111539 3.448620 5.211571
RightArm 33.323162 36.805386 62.419680
RightForeArm -6.028843 -0.000000 36.577134
RightHand -14.306546 0.000000 -74.202844
RightHandThumb1 -24.326973 -0.000000 -32.862282
LeftUpLeg 3.684699 38.413633 35.519752
LeftLeg -2.712169 -0.000000 0.000000
LeftFoot -3.662899 19.202374 -27.883074
LeftToeBase 40.517956 -0.000000 -0.000000
RightUpLeg -114.159054 -14.795200 -4.395340
RightLeg 129.077414 -0.000000 -0.000000
RightFoot -62.706909 -34.636873 31.078187
RightToeBase 20.895903 -0.000000 -0.000000
872
root 23.451212 16.026604 -12.710749 -170.171536 20.731410 -203.258015
Spine 34.709335 -16.974752 32.496063
Head 16.431398 9.794126 6.099304
LeftShoulder 2.151458 -32.293651 10.084498
LeftArm -13.728841 -15.777395 -29.104743
LeftForeArm -23.517344 -0.000000 -8.049005
LeftHand -11.454249 -0.000000 3.696376
LeftHandThumb1 -26.253704 0.000000 33.147579
RightShoulder 0.155472 3.586293 5.369588
RightArm 33.285757 36.272186 62.077652
RightForeArm -5.621676 -0.000000 36.062102
RightHand -14.391260 0.000000 -74.465717
RightHandThumb1 -24.326973 -0.000000 -32.862282
LeftUpLeg 3.736569 38.380377 35.624882
LeftLeg -2.700953 -0.000000 0.000000
LeftFoot -3.649259 19.171654 -27.865080
LeftToeBase 40.539516 -0.000000 -0.000000
RightUpLeg -114.156956 -14.756092 -4.363611
RightLeg 129.098934 -0.000000 -0.000000
RightFoot -62.684069 -34.697431 31.047253
RightToeBase 20.955540 -0.000000 -0.000000
873
root 23.452226 16.007249 -12.688308 -170.257707 20.709048 -203.222725
Spine 35.017697 -17.312909 31.954538
Head 16.288593 9.889966 6.025153
LeftShoulder 2.775304 -32.264845 9.186522
LeftArm -13.434863 -15.877845 -30.391130
LeftForeArm -24.225700 -0.000000 -8.153910
LeftHand -11.198505 0.000000 3.325826
LeftHandThumb1 -26.253704 0.000000 33.147579
RightShoulder 0.475170 3.606331 5.511925
RightArm 33.352930 35.764208 61.811737
RightForeArm -5.114593 -0.000000 35.579061
RightHand -14.384456 -0.000000 -74.476067
RightHandThumb1 -24.326973 -0.000000 -32.862282
LeftUpLeg 3.778275 38.328591 35.743549
LeftLeg -2.666872 -0.000000 0.000000
LeftFoot -3.686037 19.143823 -27.855271
LeftToeBase 40.673843 -0.000000 -0.000000
RightUpLeg -114.144862 -14.705568 -4.321127
RightLeg 129.120442 -0.000000 -0.000000
RightFoot -62.659684 -34.778776 31.026508
RightToeBase 20.708337 -0.000000 -0.000000
874
root 23.454149 15.986629 -12.666599 -170.332392 20.683042 -203.191407
Spine 35.311574 -17.671949 31.392852
Head 16.167817 10.075616 5.978583
LeftShoulder 3.372100 -32.201030 8.222051
LeftArm -13.012149 -15.863676 -31.644167
LeftForeArm -25.189534 0.000000 -8.272147
LeftHand -11.057833 -0.000000 3.003900
LeftHandThumb1 -26.253704 0.000000 33.147579
RightShoulder 0.839877 3.758319 5.669585
RightArm 33.252829 35.207010 61.443750
RightForeArm -4.633317 -0.000000 35.108441
RightHand -14.414895 0.000000 -74.534292
RightHandThumb1 -24.326973 -0.000000 -32.862282
LeftUpLeg 3.810665 38.268306 35.856882
LeftLeg -2.633009 -0.000000 0.000000
LeftFoot -3.735585 19.097675 -27.857917
LeftToeBase 40.776863 -0.000000 -0.000000
RightUpLeg -114.154786 -14.672267 -4.268173
RightLeg 129.151389 -0.000000 -0.000000
RightFoot -62.640469 -34.822047 31.006560
RightToeBase 20.691708 -0.000000 -0.000000
875
root 23.457133 15.965041 -12.646609 -170.406451 20.658423 -203.136074
Spine 35.615501 -18.015276 30.854046
Head 15.999852 10.276060 5.946433
LeftShoulder 3.995107 -32.233032 7.290258
LeftArm -12.633019 -16.007742 -32.881152
LeftForeArm -26.190326 -0.000000 -8.356148
LeftHand -11.006509 -0.000000 2.926700
LeftHandThumb1 -26.253704 0.000000 33.147579
RightShoulder 1.178915 3.870995 5.802919
RightArm 33.157618 34.622320 61.074954
RightForeArm -4.066893 -0.000000 34.655038
RightHand -14.397841 -0.000000 -74.478363
RightHandThumb1 -24.326973 -0.000000 -32.862282
LeftUpLeg 3.853490 38.211041 35.999615
LeftLeg -2.581120 -0.000000 0.000000
LeftFoot -3.801371 19.017800 -27.769491
LeftToeBase 40.774063 -0.000000 -0.000000
RightUpLeg -114.149842 -14.630100 -4.196148
RightLeg 129.184466 -0.000000 -0.000000
RightFoot -62.653031 -34.841620 31.022686
RightToeBase 20.788874 -0.000000 -0.000000
876
root 23.458143 15.943668 -12.628376 -170.487594 20.631986 -203.089136
Spine 35.930834 -18.392415 30.298477
Head 15.803389 10.476768 5.868072
LeftShoulder 4.631352 -32.362579 6.326544
LeftArm -12.270606 -15.809730 -34.107038
LeftForeArm -27.049244 -0.000000 -8.437185
LeftHand -11.068872 -0.000000 2.709163
LeftHandThumb1 -26.253704 0.000000 33.147579
RightShoulder 1.512341 3.912539 5.927607
RightArm 33.167872 34.002099 60.729692
RightForeArm -3.483073 0.000000 34.185159
RightHand -14.395969 -0.000000 -74.435311
RightHandThumb1 -24.326973 -0.000000 -32.862282
LeftUpLeg 3.911624 38.151270 36.131578
LeftLeg -2.568777 -0.000000 0.000000
LeftFoot -3.791277 19.060381 -27.712725
LeftToeBase 40.877847 -0.000000 -0.000000
RightUpLeg -114.147570 -14.605271 -4.128146
RightLeg 129.229508 -0.000000 -0.000000
RightFoot -62.661365 -34.780024 31.029480
RightToeBase 20.757561 -0.000000 -0.000000
877
root 23.460438 15.920127 -12.609748 -170.573730 20.634213 -203.043839
Spine 36.273583 -18.732378 29.704510
Head 15.637414 10.694531 5.840758
LeftShoulder 5.285663 -32.389974 5.317383
LeftArm -11.780723 -15.654248 -35.269151
LeftForeArm -27.982338 0.000000 -8.518145
LeftHand -11.145539 0.000000 2.218795
LeftHandThumb1 -26.253704 0.000000 33.147579
RightShoulder 1.865352 4.015202 6.100863
RightArm 33.125749 33.414432 60.359806
RightForeArm -2.943101 -0.000000 33.729595
RightHand -14.400316 -0.000000 -74.390553
RightHandThumb1 -24.326973 -0.000000 -32.862282
LeftUpLeg 4.003033 38.100944 36.280676
LeftLeg -2.562883 -0.000000 0.000000
LeftFoot -3.808502 19.046201 -27.626495
LeftToeBase 40.991822 -0.000000 -0.000000
RightUpLeg -114.152062 -14.548531 -4.065317
RightLeg 129.273232 -0.000000 -0.000000
RightFoot -62.609991 -34.697577 31.040405
RightToeBase 20.625940 -0.000000 -0.000000
878
root 23.463624 15.896715 -12.591981 -170.685859 20.628040 -202.998206
Spine 36.676929 -19.084845 29.098489
Head 15.359942 10.915052 5.811081
LeftShoulder 5.909857 -32.459627 4.348347
LeftArm -11.206656 -15.347910 -36.494197
LeftForeArm -28.991534 -0.000000 -8.627991
LeftHand -11.250959 -0.000000 1.748066
LeftHandThumb1 -26.253704 0.000000 33.147579
RightShoulder 2.204443 4.085428 6.270784
RightArm 33.157429 32.828067 60.031809
RightForeArm -2.437435 -0.000000 33.267570
RightHand -14.414213 -0.000000 -74.391418
RightHandThumb1 -24.326973 -0.000000 -32.862282
LeftUpLeg 4.123418 38.045574 36.446276
LeftLeg -2.570846 -0.000000 0.000000
LeftFoot -3.798934 19.009934 -27.567406
LeftToeBase 41.063106 -0.000000 -0.000000
RightUpLeg -114.116894 -14.501375 -4.013000
RightLeg 129.316936 -0.000000 -0.000000
RightFoot -62.602310 -34.826893 30.957578
RightToeBase 20.952209 -0.000000 -0.000000
879
root 23.466671 15.873818 -12.573205 -170.771281 20.596556 -202.960000
Spine 37.010325 -19.374517 28.524761
Head 15.110467 11.025946 5.854326
LeftShoulder 6.629191 -32.456270 3.350992
LeftArm -10.588238 -15.404923 -37.612336
LeftForeArm -29.506450 -0.000000 -8.730142
LeftHand -11.091447 -0.000000 1.362427
LeftHandThumb1 -26.253704 0.000000 33.147579
RightShoulder 2.492087 4.141021 6.484232
RightArm 33.122637 32.238947 59.619418
RightForeArm -1.878265 -0.000000 32.875751
RightHand -14.443807 -0.000000 -74.209223
RightHandThumb1 -24.326973 -0.000000 -32.862282
LeftUpLeg 4.168030 37.941652 36.569590
LeftLeg -2.546872 -0.000000 0.000000
LeftFoot -3.814266 19.040574 -27.500154
LeftToeBase 41.073574 -0.000000 -0.000000
RightUpLeg -114.114418 -14.479802 -3.951466
RightLeg 129.367947 -0.000000 -0.000000
RightFoot -62.567042 -34.876386 30.903135
RightToeBase 20.858015 -0.000000 -0.000000
880
root 23.471875 15.849018 -12.555010 -170.868129 20.573503 -202.898239
Spine 37.379347 -19.660314 27.967227
Head 14.812599 11.158834 5.869395
LeftShoulder 7.415670 -32.510586 2.363805
LeftArm -10.077160 -15.302582 -38.726516
LeftForeArm -30.006940 0.000000 -8.637012
LeftHand -11.162706 -0.000000 1.222775
LeftHandThumb1 -26.253704 0.000000 33.147579
RightShoulder 2.765534 4.199013 6.678612
RightArm 33.129235 31.668482 59.270127
RightForeArm -1.400171 0.000000 32.497036
RightHand -14.559246 0.000000 -74.063885
RightHandThumb1 -24.326973 -0.000000 -32.862282
LeftUpLeg 4.248526 37.816685 36.743988
LeftLeg -2.515874 -0.000000 0.000000
LeftFoot -3.873560 19.030996 -27.552429
LeftToeBase 41.108783 -0.000000 -0.000000
RightUpLeg -114.093353 -14.437633 -3.880875
RightLeg 129.423465 -0.000000 -0.000000
RightFoot -62.542850 -34.813572 30.982864
RightToeBase 20.771378 -0.000000 -0.000000
